<?xml version="1.0" encoding="UTF-8"?> <svg xmlns="http://www.w3.org/2000/svg" id="Layer_2" data-name="Layer 2" viewBox="0 0 3290.45 653.75"><defs><style> .cls-1 { fill: #fff; } </style></defs><g id="Calque_1" data-name="Calque 1"><g id="LOGO-ICON-LEFT"><path id="LOGOTYPE" class="cls-1" d="M745.6,558.59v-159.16c9.59,12.45,22.55,22.04,38.87,28.77,16.32,6.73,34.48,10.1,54.48,10.1,26.93,0,50.71-6.17,71.32-18.52,20.61-12.35,36.78-29.84,48.51-52.49,11.73-22.65,17.6-48.56,17.6-77.74s-5.87-54.94-17.6-77.28c-11.73-22.34-27.9-39.69-48.51-52.03-20.61-12.35-44.08-18.52-70.4-18.52-21.83,0-41.63,4.39-59.38,13.16-17.75,8.77-31.63,20.71-41.63,35.81h0l-5.2-40.1h-57.54v408h69.48Zm80.19-183.65c-23.26,0-42.14-7.65-56.62-22.96-14.49-15.3-21.73-35.71-21.73-61.22s7.29-46.68,21.88-62.29c14.59-15.61,33.62-23.41,57.08-23.41s42.39,7.8,56.78,23.41c14.39,15.61,21.58,36.17,21.58,61.67s-7.19,45.5-21.58,61.22c-14.39,15.71-33.52,23.57-57.39,23.57Zm333.69,63.36c22.04,0,41.98-4.29,59.84-12.86,17.85-8.57,31.58-20.2,41.17-34.89h0v39.48h67.03V150.59h-58.46l-5.51,35.5c-10-14.08-23.52-25-40.56-32.75-17.04-7.75-36.17-11.63-57.39-11.63-27.14,0-51.17,6.17-72.08,18.52-20.92,12.35-37.19,29.89-48.82,52.65-11.63,22.75-17.45,48.92-17.45,78.51s5.51,55.14,16.53,77.28c11.02,22.14,26.58,39.28,46.68,51.42,20.1,12.14,43.11,18.21,69.02,18.21Zm17.45-63.36c-23.26,0-42.14-7.86-56.62-23.57-14.49-15.71-21.73-36.32-21.73-61.83s7.19-46.06,21.58-61.67,33.52-23.41,57.39-23.41,43,7.7,57.39,23.11c14.39,15.41,21.58,35.86,21.58,61.37s-7.4,46.22-22.19,62.13c-14.79,15.92-33.92,23.87-57.39,23.87Zm302.77,55.09v-140.49c0-25.51,6.78-45.25,20.35-59.23,13.57-13.98,32.9-20.97,58-20.97,3.47,0,8.98,.41,16.53,1.22h0v-59.99c-8.37-1.63-17.14-2.55-26.32-2.75-17.14,0-31.93,3.67-44.38,11.02-12.45,7.35-20.71,17.96-24.79,31.83h0l-6.12-40.1h-63.36V430.04h70.09ZM1876.12,93.97c13.88,0,25.4-4.59,34.59-13.77s13.77-20.2,13.77-33.06-4.59-24.69-13.77-33.67c-9.18-8.98-20.71-13.47-34.59-13.47s-26.02,4.49-35.2,13.47-13.77,20.2-13.77,33.67,4.69,23.87,14.08,33.06c9.39,9.18,21.02,13.77,34.89,13.77Zm-138.65,336.07V208.13h102.84v221.91h70.4V150.59h-173.24V77.13h-70.09v73.46h-53.26v57.54h53.26v221.91h70.09Zm389.39,8.26c37.55,0,69.12-10.15,94.73-30.45,25.61-20.3,40.45-46.98,44.53-80.04h-71.62c-3.26,14.28-11.07,25.91-23.41,34.89-12.35,8.98-27.7,13.47-46.06,13.47-23.47,0-41.98-7.86-55.55-23.57-13.57-15.71-20.35-36.53-20.35-62.44s6.99-47.9,20.97-63.51,32.5-23.41,55.55-23.41c17.55,0,32.39,4.23,44.53,12.7,12.14,8.47,20.25,20.66,24.33,36.58h71.62c-3.88-33.67-18.57-60.55-44.08-80.65-25.51-20.1-57.44-30.15-95.8-30.15-28.77,0-54.43,6.17-76.98,18.52-22.55,12.35-39.99,29.69-52.34,52.03s-18.52,48.11-18.52,77.28,6.17,55.35,18.52,77.9c12.35,22.55,29.79,39.99,52.34,52.34,22.55,12.35,48.41,18.52,77.59,18.52Zm334.3,0c34.69,0,64.58-8.77,89.68-26.32,25.1-17.55,40.71-40.61,46.83-69.17h-68.26c-4.49,11.83-12.8,21.07-24.95,27.7-12.14,6.63-26.58,9.95-43.31,9.95-22.24,0-40.35-6.48-54.33-19.44-13.98-12.96-21.37-30.05-22.19-51.27h209.36c2.04-9.18,3.06-20.71,3.06-34.59,0-25.91-5.71-48.87-17.14-68.87-11.43-20-27.6-35.76-48.51-47.29-20.92-11.53-44.94-17.29-72.08-17.29s-52.19,6.07-73.92,18.21c-21.73,12.14-38.77,29.28-51.11,51.42-12.35,22.14-18.52,48-18.52,77.59s6.07,55.35,18.21,77.9c12.14,22.55,29.18,40.1,51.11,52.65,21.94,12.55,47.29,18.82,76.06,18.82Zm64.58-175.69h-139.88c.82-19.18,7.86-34.54,21.12-46.06,13.26-11.53,30.1-17.29,50.5-17.29s36.27,5.66,48.82,16.99c12.55,11.32,19.03,26.78,19.44,46.37h0Zm264.51,175.69c34.69,0,64.58-8.77,89.68-26.32,25.1-17.55,40.71-40.61,46.83-69.17h-68.26c-4.49,11.83-12.8,21.07-24.95,27.7-12.14,6.63-26.58,9.95-43.31,9.95-22.24,0-40.35-6.48-54.33-19.44-13.98-12.96-21.37-30.05-22.19-51.27h209.36c2.04-9.18,3.06-20.71,3.06-34.59,0-25.91-5.71-48.87-17.14-68.87-11.43-20-27.6-35.76-48.51-47.29-20.92-11.53-44.94-17.29-72.08-17.29s-52.19,6.07-73.92,18.21c-21.73,12.14-38.77,29.28-51.11,51.42-12.35,22.14-18.52,48-18.52,77.59s6.07,55.35,18.21,77.9c12.14,22.55,29.18,40.1,51.11,52.65,21.94,12.55,47.29,18.82,76.06,18.82Zm64.58-175.69h-139.88c.82-19.18,7.86-34.54,21.12-46.06,13.26-11.53,30.1-17.29,50.5-17.29s36.27,5.66,48.82,16.99c12.55,11.32,19.03,26.78,19.44,46.37h0Zm204.83,295.98v-159.16c9.59,12.45,22.55,22.04,38.87,28.77,16.32,6.73,34.48,10.1,54.48,10.1,26.93,0,50.71-6.17,71.32-18.52,20.61-12.35,36.78-29.84,48.51-52.49,11.73-22.65,17.6-48.56,17.6-77.74s-5.87-54.94-17.6-77.28c-11.73-22.34-27.9-39.69-48.51-52.03-20.61-12.35-44.08-18.52-70.4-18.52-21.83,0-41.63,4.39-59.38,13.16-17.75,8.77-31.63,20.71-41.63,35.81h0l-5.2-40.1h-57.54v408h69.48Zm80.19-183.65c-23.26,0-42.14-7.65-56.62-22.96-14.49-15.3-21.73-35.71-21.73-61.22s7.3-46.68,21.88-62.29c14.59-15.61,33.62-23.41,57.08-23.41s42.39,7.8,56.78,23.41c14.39,15.61,21.58,36.17,21.58,61.67s-7.19,45.5-21.58,61.22-33.52,23.57-57.39,23.57Z"></path><path id="TAGLINE" class="cls-1" d="M886.58,618.57c11,0,20.98-2.53,29.92-7.6,8.95-5.07,16.01-12.07,21.19-21.02s7.77-19.09,7.77-30.44-2.59-21.64-7.77-30.7-12.25-16.11-21.19-21.15-18.92-7.56-29.92-7.56-21.06,2.55-30.01,7.64c-8.95,5.1-16,12.15-21.15,21.15s-7.73,19.21-7.73,30.62,2.58,21.69,7.73,30.66,12.22,15.95,21.19,20.93c8.98,4.98,18.96,7.47,29.97,7.47Zm0-14.42c-7.93,0-15.17-1.9-21.71-5.69s-11.68-9.06-15.42-15.81c-3.73-6.75-5.6-14.46-5.6-23.15s1.87-16.4,5.6-23.15c3.73-6.75,8.87-12.02,15.42-15.81,6.54-3.79,13.84-5.69,21.89-5.69s15.13,1.9,21.58,5.69c6.46,3.79,11.55,9.06,15.29,15.81,3.73,6.75,5.6,14.46,5.6,23.15s-1.87,16.33-5.6,23.1c-3.73,6.78-8.86,12.06-15.37,15.85s-13.74,5.69-21.67,5.69Zm94.43,47.25v-46.73c2.72,4.4,6.6,7.82,11.64,10.25s10.77,3.65,17.2,3.65c7.35,0,13.91-1.72,19.67-5.17,5.76-3.45,10.26-8.32,13.51-14.64,3.24-6.31,4.86-13.49,4.86-21.54s-1.62-15.42-4.86-21.76-7.72-11.23-13.42-14.68-12.23-5.17-19.59-5.17c-6.66,0-12.68,1.49-18.07,4.47-5.39,2.98-9.38,6.91-11.99,11.77h0l-1.22-13.9h-12.16v113.44h14.42Zm26.32-46.04c-7.59,0-13.68-2.49-18.28-7.47s-6.91-11.73-6.91-20.24,2.3-15.61,6.91-20.76,10.76-7.73,18.46-7.73,13.72,2.55,18.41,7.64,7.04,11.9,7.04,20.41-2.35,15.11-7.04,20.33-10.89,7.82-18.59,7.82Zm96.52,13.2c9.21,0,17.26-2.35,24.15-7.04s11.23-10.89,13.03-18.59h-14.42c-1.56,4.11-4.39,7.38-8.47,9.82s-8.85,3.65-14.29,3.65c-7.35,0-13.38-2.24-18.07-6.73s-7.15-10.47-7.38-17.94h61.76c.46-2.03,.69-5.01,.69-8.95,0-7.24-1.58-13.67-4.73-19.28-3.16-5.62-7.54-10-13.16-13.16s-12.16-4.73-19.63-4.73-14.38,1.69-20.37,5.08c-5.99,3.39-10.68,8.22-14.07,14.51s-5.08,13.51-5.08,21.67,1.66,15.48,4.99,21.76,8.02,11.18,14.07,14.68c6.05,3.5,13.04,5.26,20.98,5.26Zm22.06-47.51h-47.34c.23-7.01,2.61-12.58,7.12-16.72s10.34-6.21,17.46-6.21c6.72,0,12.16,2.07,16.33,6.21s6.31,9.71,6.43,16.72h0Zm104.25,45.34v-48.55c0-10.19-2.66-18.11-7.99-23.76-5.33-5.65-12.45-8.47-21.37-8.47-5.44,0-10.51,1.22-15.2,3.65s-8.22,5.67-10.6,9.73h0l-1.39-11.03h-12.33v78.26h14.77v-46.3c0-6.14,1.9-11.16,5.69-15.07s8.96-5.86,15.5-5.86c11.99,0,17.98,7.41,17.98,22.24h0v45.17h14.94Zm33.11-97.63c3.24,0,5.86-1.07,7.86-3.21s3-4.69,3-7.64-1.01-5.44-3.04-7.47-4.63-3.04-7.82-3.04-5.65,1.01-7.73,3.04-3.13,4.52-3.13,7.47,1.04,5.65,3.13,7.73,4.66,3.13,7.73,3.13Zm7.47,97.63v-78.43h-14.77v78.43h14.77Zm95.56,0v-48.55c0-10.19-2.66-18.11-7.99-23.76-5.33-5.65-12.45-8.47-21.37-8.47-5.44,0-10.51,1.22-15.2,3.65s-8.22,5.67-10.6,9.73h0l-1.39-11.03h-12.33v78.26h14.77v-46.3c0-6.14,1.9-11.16,5.69-15.07,3.79-3.91,8.96-5.86,15.5-5.86,11.99,0,17.98,7.41,17.98,22.24h0v45.17h14.94Zm60.56,37.35c12.22,0,21.95-3.43,29.18-10.29,7.24-6.86,10.86-16,10.86-27.4h0v-78.09h-13.38l-.87,12.77c-2.72-4.75-6.54-8.45-11.47-11.12s-10.65-4-17.2-4c-7.47,0-14.06,1.72-19.76,5.17-5.7,3.45-10.09,8.19-13.16,14.25s-4.6,12.81-4.6,20.28,1.51,14,4.52,19.93,7.34,10.58,12.99,13.94,12.15,5.04,19.5,5.04c6.37,0,12.06-1.26,17.07-3.78s8.87-6.04,11.6-10.55h0v16.5c0,7.47-2.2,13.41-6.6,17.81s-10.63,6.6-18.67,6.6c-6.43,0-11.81-1.58-16.16-4.73s-7.09-7.57-8.25-13.25h-14.59c1.33,9.61,5.5,17.17,12.51,22.67s15.84,8.25,26.49,8.25Zm-.87-52.46c-7.35,0-13.26-2.46-17.72-7.38s-6.69-11.18-6.69-18.76,2.2-13.9,6.6-18.94,10.34-7.56,17.81-7.56,13.68,2.52,18.28,7.56,6.91,11.29,6.91,18.76-2.33,13.72-6.99,18.76-10.73,7.56-18.2,7.56Zm127.02,15.11v-66.19h39.87v66.19h14.77v-78.43h-54.63v-12.25c0-6.66,1.84-11.77,5.52-15.33s8.58-5.34,14.72-5.34c5.73,0,10.35,1.58,13.85,4.73s5.49,7.69,5.95,13.59h14.42c-.52-9.5-3.81-17.1-9.86-22.8s-14.23-8.56-24.54-8.56c-10.89,0-19.41,3.07-25.58,9.21-6.17,6.14-9.25,14.3-9.25,24.49h0v12.25h-10.68v12.25h10.68v66.19h14.77Zm146.64,0v-48.55c0-10.19-2.66-18.11-7.99-23.76s-12.45-8.47-21.37-8.47c-5.44,0-10.51,1.22-15.2,3.65-4.69,2.43-8.22,5.67-10.6,9.73h0l-1.39-11.03h-12.33v78.26h14.77v-46.3c0-6.14,1.9-11.16,5.69-15.07s8.96-5.86,15.5-5.86c11.99,0,17.98,7.41,17.98,22.24h0v45.17h14.94Zm57.34,2.17c6.78,0,12.86-1.46,18.24-4.39s9.38-6.82,11.99-11.68h0v13.9h13.9v-78.43h-12.25l-1.3,12.59c-2.84-4.63-6.8-8.28-11.9-10.94s-10.97-4-17.63-4c-7.47,0-14.07,1.72-19.8,5.17-5.73,3.45-10.23,8.34-13.51,14.68s-4.91,13.65-4.91,21.93,1.56,15.27,4.69,21.5,7.51,11.06,13.16,14.51c5.65,3.45,12.09,5.17,19.33,5.17Zm3.21-13.38c-7.59,0-13.69-2.59-18.33-7.77s-6.95-11.97-6.95-20.37,2.32-15.17,6.95-20.33c4.63-5.15,10.86-7.73,18.67-7.73s13.72,2.52,18.41,7.56,7.04,11.76,7.04,20.15-2.37,15.61-7.12,20.76-10.97,7.73-18.67,7.73Zm135.78,11.2v-48.55c0-10.19-2.66-18.11-7.99-23.76-5.33-5.65-12.45-8.47-21.37-8.47-5.44,0-10.51,1.22-15.2,3.65s-8.22,5.67-10.6,9.73h0l-1.39-11.03h-12.33v78.26h14.77v-46.3c0-6.14,1.9-11.16,5.69-15.07s8.96-5.86,15.5-5.86c11.99,0,17.98,7.41,17.98,22.24h0v45.17h14.94Zm60.91,2.17c9.84,0,18.23-2.62,25.15-7.86,6.92-5.24,11.1-12.12,12.55-20.63h-15.11c-1.04,4.63-3.65,8.37-7.82,11.2s-9.21,4.26-15.11,4.26c-7.93,0-14.16-2.59-18.67-7.77s-6.78-12.03-6.78-20.54,2.35-15.84,7.04-20.93,10.83-7.64,18.41-7.64c5.91,0,10.92,1.39,15.03,4.17s6.75,6.6,7.9,11.47h15.11c-1.39-8.8-5.53-15.78-12.42-20.93-6.89-5.15-15.37-7.73-25.45-7.73-7.93,0-14.95,1.72-21.06,5.17-6.11,3.45-10.89,8.31-14.33,14.59-3.45,6.28-5.17,13.51-5.17,21.67s1.69,15.48,5.08,21.76c3.39,6.28,8.16,11.15,14.33,14.59s13.28,5.17,21.32,5.17Zm66.55-99.8c3.24,0,5.86-1.07,7.86-3.21s3-4.69,3-7.64-1.01-5.44-3.04-7.47c-2.03-2.03-4.63-3.04-7.82-3.04s-5.65,1.01-7.73,3.04-3.13,4.52-3.13,7.47,1.04,5.65,3.13,7.73c2.08,2.08,4.66,3.13,7.73,3.13Zm7.47,97.63v-78.43h-14.77v78.43h14.77Zm58.56,2.17c6.78,0,12.86-1.46,18.24-4.39s9.38-6.82,11.99-11.68h0v13.9h13.9v-78.43h-12.25l-1.3,12.59c-2.84-4.63-6.8-8.28-11.9-10.94s-10.97-4-17.63-4c-7.47,0-14.07,1.72-19.8,5.17-5.73,3.45-10.23,8.34-13.51,14.68s-4.91,13.65-4.91,21.93,1.56,15.27,4.69,21.5c3.13,6.22,7.51,11.06,13.16,14.51,5.65,3.45,12.09,5.17,19.33,5.17Zm3.21-13.38c-7.59,0-13.69-2.59-18.33-7.77-4.63-5.18-6.95-11.97-6.95-20.37s2.32-15.17,6.95-20.33c4.63-5.15,10.86-7.73,18.67-7.73s13.72,2.52,18.41,7.56c4.69,5.04,7.04,11.76,7.04,20.15s-2.37,15.61-7.12,20.76-10.97,7.73-18.67,7.73Zm81.67,11.2v-122.04h-14.77v122.04h14.77Zm84.9,35v-46.73c2.72,4.4,6.6,7.82,11.64,10.25s10.77,3.65,17.2,3.65c7.35,0,13.91-1.72,19.67-5.17,5.76-3.45,10.26-8.32,13.51-14.64,3.24-6.31,4.86-13.49,4.86-21.54s-1.62-15.42-4.86-21.76c-3.24-6.34-7.72-11.23-13.42-14.68-5.7-3.45-12.23-5.17-19.59-5.17-6.66,0-12.68,1.49-18.07,4.47s-9.38,6.91-11.99,11.77h0l-1.22-13.9h-12.16v113.44h14.42Zm26.32-46.04c-7.59,0-13.68-2.49-18.28-7.47s-6.91-11.73-6.91-20.24,2.3-15.61,6.91-20.76c4.6-5.15,10.76-7.73,18.46-7.73s13.72,2.55,18.41,7.64c4.69,5.1,7.04,11.9,7.04,20.41s-2.35,15.11-7.04,20.33c-4.69,5.21-10.89,7.82-18.59,7.82Zm76.02,11.03v-42.3c0-7.47,1.93-13.32,5.78-17.55,3.85-4.23,9.34-6.34,16.46-6.34,2.37,0,4.23,.12,5.56,.35h0v-12.59c-2.37-.46-4.86-.69-7.47-.69-4.86,0-9.13,1.09-12.81,3.26s-6.18,5.28-7.51,9.34h0l-1.74-11.9h-13.03v78.43h14.77Zm80.62,2.17c8.22,0,15.53-1.81,21.93-5.43,6.4-3.62,11.41-8.58,15.03-14.9,3.62-6.31,5.43-13.32,5.43-21.02s-1.78-14.87-5.34-21.15c-3.56-6.28-8.58-11.26-15.07-14.94-6.49-3.68-13.81-5.52-21.98-5.52s-15.45,1.84-21.85,5.52-11.38,8.66-14.94,14.94-5.34,13.33-5.34,21.15,1.81,14.78,5.43,21.06c3.62,6.28,8.63,11.23,15.03,14.85s13.62,5.43,21.67,5.43Zm0-13.2c-7.82,0-14.25-2.66-19.28-7.99s-7.56-12.04-7.56-20.15,2.52-14.94,7.56-20.33c5.04-5.39,11.47-8.08,19.28-8.08s14.68,2.69,19.72,8.08c5.04,5.39,7.56,12.16,7.56,20.33s-2.53,14.82-7.6,20.15-11.62,7.99-19.67,7.99Zm96.08,13.2c6.78,0,12.86-1.49,18.24-4.47s9.32-6.91,11.81-11.77h0l1.3,14.07h12.07v-122.04h-14.25v55.33c-2.72-4.4-6.6-7.85-11.64-10.34-5.04-2.49-10.83-3.73-17.37-3.73-7.35,0-13.9,1.72-19.63,5.17-5.73,3.45-10.23,8.31-13.51,14.59s-4.91,13.51-4.91,21.67,1.61,15.48,4.82,21.76c3.21,6.28,7.69,11.15,13.42,14.59,5.73,3.45,12.28,5.17,19.63,5.17Zm2.52-13.38c-7.59,0-13.69-2.59-18.33-7.77s-6.95-11.97-6.95-20.37,2.32-15.17,6.95-20.33,10.86-7.73,18.67-7.73,13.72,2.52,18.41,7.56c4.69,5.04,7.04,11.76,7.04,20.15s-2.37,15.61-7.12,20.76c-4.75,5.15-10.97,7.73-18.68,7.73Zm93.74,13.38c5.67,0,10.71-1.13,15.11-3.39s7.85-5.65,10.34-10.16h0l1.39,11.38h12.07v-78.43h-14.77v45.17c0,6.78-1.78,12.2-5.34,16.29s-8.3,6.12-14.2,6.12-10.5-1.53-13.77-4.6c-3.27-3.07-4.91-8.22-4.91-15.46h0v-47.51h-14.77v50.29c0,9.27,2.52,16.63,7.56,22.11,5.04,5.47,12.13,8.21,21.28,8.21Zm99.3,0c9.84,0,18.23-2.62,25.15-7.86,6.92-5.24,11.1-12.12,12.55-20.63h-15.11c-1.04,4.63-3.65,8.37-7.82,11.2-4.17,2.84-9.21,4.26-15.11,4.26-7.93,0-14.16-2.59-18.67-7.77s-6.78-12.03-6.78-20.54,2.35-15.84,7.04-20.93c4.69-5.1,10.83-7.64,18.41-7.64,5.91,0,10.92,1.39,15.03,4.17s6.75,6.6,7.9,11.47h15.11c-1.39-8.8-5.53-15.78-12.42-20.93-6.89-5.15-15.37-7.73-25.45-7.73-7.93,0-14.95,1.72-21.06,5.17-6.11,3.45-10.89,8.31-14.33,14.59s-5.17,13.51-5.17,21.67,1.69,15.48,5.08,21.76c3.39,6.28,8.16,11.15,14.33,14.59,6.17,3.45,13.28,5.17,21.32,5.17Zm80.62-2.17v-66.19h15.46v-12.25h-15.46v-20.85h-14.77v20.85h-15.29v12.25h15.29v66.19h14.77Zm61.95,2.17c9.55,0,17.18-2.2,22.89-6.6,5.7-4.4,8.56-10.34,8.56-17.81,0-5.44-1.59-10.09-4.78-13.94s-8.05-6.5-14.59-7.95h0l-15.81-3.56c-3.36-.69-6.07-1.8-8.12-3.3s-3.08-3.91-3.08-7.21c0-3.53,1.29-6.28,3.87-8.25s6.07-2.95,10.47-2.95c4.63,0,8.44,1.16,11.42,3.47s4.53,5.5,4.65,9.55h14.42c-.23-7.35-3.11-13.26-8.64-17.72-5.53-4.46-12.75-6.69-21.67-6.69s-15.85,2.17-21.32,6.51c-5.47,4.34-8.21,10.13-8.21,17.37,0,5.33,1.64,9.84,4.91,13.55,3.27,3.71,8.35,6.34,15.24,7.9h0l13.9,3.21c3.53,.75,6.43,1.93,8.69,3.52s3.39,4.21,3.39,7.86-1.42,6.57-4.26,8.6c-2.84,2.03-6.8,3.04-11.9,3.04s-9.29-1.1-12.42-3.3-4.86-5.33-5.21-9.38h-14.42c.46,7.24,3.63,13.06,9.51,17.46s13.39,6.6,22.54,6.6Z"></path><path class="cls-1" d="M271.07,48.85C121.36,48.85,0,170.21,0,319.92c0,47.9,12.47,92.87,34.28,131.93l148.24-152.31,73.45,75.84,143.95-149.8,30.54,29.35-174.36,181.46-73.65-76.05-124.09,127.49c49.65,62.8,126.44,103.15,212.71,103.15,149.71,0,271.07-121.36,271.07-271.07S420.78,48.85,271.07,48.85Z"></path></g></g></svg> 